<svg xmlns="http://www.w3.org/2000/svg" version="1.1" xmlns:xlink="http://www.w3.org/1999/xlink" xmlns:svgjs="http://svgjs.com/svgjs" width="1440" height="560" preserveAspectRatio="none" viewBox="0 0 1440 560"><g mask="url(&quot;#SvgjsMask1000&quot;)" fill="none"><rect width="1440" height="560" x="0" y="0" fill="#0e2a47"></rect><path d="M834.44 495.25 a7.36 7.36 0 1 0 14.72 0 a7.36 7.36 0 1 0 -14.72 0z" fill="#037b0b"></path><path d="M1388.49 379.57a31.48 31.48 0 1 0 62.74-5.32z" fill="#e73635"></path><path d="M618.33 511.38L654.15 511.38L654.15 547.2L618.33 547.2z" fill="#d3b714"></path><path d="M1320.96 556.57L1370.99 556.57L1370.99 587.04L1320.96 587.04z" fill="#e73635"></path><path d="M671.06 209.88 a13.9 13.9 0 1 0 27.8 0 a13.9 13.9 0 1 0 -27.8 0z" stroke="#e73635"></path><path d="M86.6 517.45L122.89 517.45L122.89 558.42L86.6 558.42z" stroke="#e73635"></path><path d="M433.23 25.04 a19.65 19.65 0 1 0 39.3 0 a19.65 19.65 0 1 0 -39.3 0z" fill="#037b0b"></path><path d="M257.98 241.48L273.42 241.48L273.42 256.92L257.98 256.92z" fill="#e73635"></path><path d="M221.45 112.68a0.71 0.71 0 1 0 0.82 1.16z" fill="#e73635"></path><path d="M672.15 299.39 a7.95 7.95 0 1 0 15.9 0 a7.95 7.95 0 1 0 -15.9 0z" stroke="#d3b714"></path><path d="M1403.98 398.74a13.54 13.54 0 1 0 17.14 20.96z" fill="#037b0b"></path><path d="M912.96 3.51L947.39 3.51L947.39 38.75L912.96 38.75z" fill="#e73635"></path><path d="M984.21 206.12L1030.06 206.12L1030.06 258.04L984.21 258.04z" fill="#037b0b"></path><path d="M448.77 416.69L459.42 416.69L459.42 427.34L448.77 427.34z" fill="#037b0b"></path><path d="M719.86 212.59 a51.08 51.08 0 1 0 102.16 0 a51.08 51.08 0 1 0 -102.16 0z" stroke="#037b0b"></path><path d="M1384.9 387.17 a32.23 32.23 0 1 0 64.46 0 a32.23 32.23 0 1 0 -64.46 0z" fill="#d3b714"></path><path d="M1291.75 120.92 a48.44 48.44 0 1 0 96.88 0 a48.44 48.44 0 1 0 -96.88 0z" stroke="#d3b714"></path><path d="M1167.95 345.26L1177.57 345.26L1177.57 347.2L1167.95 347.2z" fill="#e73635"></path><path d="M510.68 235.96 a53.49 53.49 0 1 0 106.98 0 a53.49 53.49 0 1 0 -106.98 0z" fill="#e73635"></path><path d="M84.99 397.76a17.92 17.92 0 1 0-16.22 31.97z" fill="#e73635"></path><path d="M712.01 68.08L750.51 68.08L750.51 102.6L712.01 102.6z" fill="#e73635"></path><path d="M1395.25 316.91L1447.55 316.91L1447.55 369.21L1395.25 369.21z" fill="#d3b714"></path><path d="M608.25 78.92 a17.86 17.86 0 1 0 35.72 0 a17.86 17.86 0 1 0 -35.72 0z" fill="#e73635"></path><path d="M1205.23 288.85a17.46 17.46 0 1 0-28.33-20.42z" fill="#037b0b"></path><path d="M73.55 476.83L117 476.83L117 520.58L73.55 520.58z" fill="#037b0b"></path><path d="M456.35 365.16L465.58 365.16L465.58 374.39L456.35 374.39z" stroke="#037b0b"></path><path d="M1219 183.29L1251.33 183.29L1251.33 215.62L1219 215.62z" fill="#d3b714"></path><path d="M373.1 177.35L409.57 177.35L409.57 180.54L373.1 180.54z" stroke="#e73635"></path><path d="M156.48 485.64 a44.87 44.87 0 1 0 89.74 0 a44.87 44.87 0 1 0 -89.74 0z" stroke="#d3b714"></path><path d="M810.15 284.51 a20.48 20.48 0 1 0 40.96 0 a20.48 20.48 0 1 0 -40.96 0z" fill="#037b0b"></path><path d="M291.38 543.49L330.47 543.49L330.47 582.58L291.38 582.58z" stroke="#037b0b"></path><path d="M899.73 430.03a45.41 45.41 0 1 0 61.62 66.71z" fill="#e73635"></path><path d="M388.96 332.07a42.51 42.51 0 1 0 82.56 20.31z" stroke="#037b0b"></path></g><defs><mask id="SvgjsMask1000"><rect width="1440" height="560" fill="#ffffff"></rect></mask></defs></svg>